<svg xmlns="http://www.w3.org/2000/svg" width="24" height="24" viewBox="0 0 24 24">
    <g fill="none" fill-rule="evenodd">
        <path d="M0 0h24v24H0z"/>
        <path fill="#A3B3BF" fill-rule="nonzero" d="M12 2c5.52 0 10 4.48 10 10s-4.48 10-10 10S2 17.52 2 12 6.48 2 12 2zm.08 12.59c.54 0 .99-.36.99-.99v-.108c0-.414.108-.648.468-1.08l1.08-1.278c.702-.828.99-1.548.99-2.484 0-1.8-1.332-3.15-3.384-3.15-1.8 0-2.988.936-3.402 2.268a1.562 1.562 0 0 0-.072.468c0 .522.396.882.936.882.396 0 .738-.216.936-.702.252-.702.756-1.116 1.548-1.116.882 0 1.386.63 1.386 1.368 0 .558-.126.954-.756 1.71l-.99 1.188c-.576.666-.72 1.152-.72 1.908v.126c0 .63.432.99.99.99zm-1.206 2.268c0 .684.558 1.242 1.242 1.242.666 0 1.242-.558 1.242-1.242 0-.684-.576-1.242-1.242-1.242-.684 0-1.242.558-1.242 1.242z"/>
    </g>
</svg>
