<svg xmlns="http://www.w3.org/2000/svg" width="32" height="32" viewBox="0 0 32 32">
    <g fill="none" fill-rule="evenodd">
        <path d="M0 0h32v32H0z" opacity=".5"/>
        <path fill="#0095B3" fill-rule="nonzero" d="M16 32C7.163 32 0 24.837 0 16S7.163 0 16 0s16 7.163 16 16-7.163 16-16 16zm5.018-11.677v-5.296h-5.222v2.015h2.488v2.287a1.797 1.797 0 0 1-.283.224c-.115.076-.26.146-.433.21a3.64 3.64 0 0 1-.624.159 5.032 5.032 0 0 1-.857.064c-1.02 0-1.795-.356-2.324-1.067-.529-.71-.793-1.762-.793-3.153v-.802c0-1.392.243-2.442.73-3.15.485-.707 1.196-1.061 2.132-1.061.407 0 .758.051 1.053.155.294.103.542.25.743.442.2.191.358.422.474.692.115.27.2.573.255.907h2.661a6.117 6.117 0 0 0-.465-1.777 4.12 4.12 0 0 0-.989-1.395c-.422-.389-.947-.69-1.576-.907-.63-.215-1.375-.323-2.238-.323-.839 0-1.601.143-2.288.428a4.734 4.734 0 0 0-1.754 1.249c-.483.547-.857 1.22-1.121 2.019-.265.799-.397 1.712-.397 2.739v.784c0 1.027.138 1.938.415 2.734.276.796.667 1.467 1.171 2.014a4.92 4.92 0 0 0 1.818 1.244c.708.283 1.49.424 2.347.424.73 0 1.375-.062 1.937-.187a7.617 7.617 0 0 0 1.463-.464 4.9 4.9 0 0 0 1.03-.602c.274-.216.49-.418.647-.606z"/>
    </g>
</svg>
