<svg xmlns="http://www.w3.org/2000/svg" width="32" height="32" viewBox="0 0 32 32">
    <g fill="#0095B3" fill-rule="evenodd">
        <circle cx="16" cy="16" r="3"/>
        <path fill-rule="nonzero" d="M25.5 16a1.5 1.5 0 0 1-3 0 6.5 6.5 0 1 0-6.5 6.5 1.5 1.5 0 0 1 0 3 9.5 9.5 0 1 1 9.5-9.5z"/>
        <path fill-rule="nonzero" d="M16 31.5a1.5 1.5 0 0 1 0-3c6.904 0 12.5-5.596 12.5-12.5S22.904 3.5 16 3.5 3.5 9.096 3.5 16a1.5 1.5 0 0 1-3 0C.5 7.44 7.44.5 16 .5 24.56.5 31.5 7.44 31.5 16c0 8.56-6.94 15.5-15.5 15.5z"/>
    </g>
</svg>
