<svg xmlns="http://www.w3.org/2000/svg" width="38" height="32" viewBox="0 0 38 32">
    <g fill="none" fill-rule="nonzero">
        <path fill="#E2761B" d="M27.538 6.696l-6.805 5.04c-.204.15-.478-.065-.379-.3l1.869-4.414.143-.137 4.724-1.76a6.95 6.95 0 0 0 .448 1.57z"/>
        <g fill="#E4761B" stroke="#E4761B" stroke-linecap="round" stroke-linejoin="round" stroke-width=".5">
            <path d="M7.36 4.05l10.025 7.555-1.777-4.486zM27.054 21.397l-2.691 4.112 5.758 1.58 1.656-5.6zM6.295 21.489l1.645 5.6 5.758-1.58-2.691-4.112z"/>
            <path d="M13.373 14.45l-1.604 2.42 5.718.254-.203-6.127zM24.677 14.45l-3.96-3.523-.133 6.197 5.708-.253zM13.698 25.509l3.433-1.671-2.965-2.309zM20.92 23.838l3.442 1.67-.477-3.979z"/>
        </g>
        <g fill="#D7C1B3" stroke="#D7C1B3" stroke-linecap="round" stroke-linejoin="round" stroke-width=".5">
            <path d="M24.363 25.509l-3.443-1.671.274 2.238-.03.942zM13.698 25.509l3.2 1.509-.02-.942.253-2.238z"/>
        </g>
        <path fill="#233447" stroke="#233447" stroke-linecap="round" stroke-linejoin="round" stroke-width=".5" d="M16.948 20.05l-2.864-.84 2.021-.921zM21.102 20.05l.843-1.761 2.032.921z"/>
        <g fill="#CD6116" stroke="#CD6116" stroke-linecap="round" stroke-linejoin="round" stroke-width=".5">
            <path d="M13.698 25.509l.488-4.112-3.179.092zM23.875 21.397l.487 4.112 2.692-4.02zM26.292 16.87l-5.708.254.528 2.927.843-1.762 2.032.921zM14.084 19.21l2.032-.921.832 1.762.539-2.927-5.718-.253z"/>
        </g>
        <g fill="#E4751F" stroke="#E4751F" stroke-linecap="round" stroke-linejoin="round" stroke-width=".5">
            <path d="M11.769 16.87l2.397 4.66-.082-2.32zM23.987 19.21l-.102 2.32 2.407-4.66zM17.487 17.124l-.539 2.927.67 3.453.153-4.547zM20.584 17.124l-.274 1.823.122 4.557.68-3.453z"/>
        </g>
        <path fill="#F6851B" stroke="#F6851B" stroke-linecap="round" stroke-linejoin="round" stroke-width=".5" d="M21.113 20.05l-.681 3.454.488.334 2.965-2.309.102-2.319zM14.084 19.21l.082 2.32 2.965 2.308.488-.334-.67-3.453z"/>
        <path fill="#C0AD9E" stroke="#C0AD9E" stroke-linecap="round" stroke-linejoin="round" stroke-width=".5" d="M21.163 27.018l.03-.942-.253-.223h-3.83l-.233.223.02.942-3.199-1.51 1.118.912 2.264 1.57h3.89l2.275-1.57 1.118-.911z"/>
        <path fill="#161616" stroke="#161616" stroke-linecap="round" stroke-linejoin="round" stroke-width=".5" d="M20.92 23.838l-.488-.334h-2.813l-.488.334-.254 2.238.234-.223h3.829l.254.223z"/>
        <path fill="#763D16" d="M27.355 6.207a7.019 7.019 0 0 0 4.313 4.395l-.274 1.314.411.31a.25.25 0 0 1 .001.398l-.553.42.372.287a.25.25 0 0 1 .015.383l-.584.531.257.185a.25.25 0 0 1 .044.366l-1.179 1.367a.25.25 0 0 1-.259.077l-5.312-1.55-.09-.048-3.759-3.17a.25.25 0 0 1 .013-.392l6.584-4.873z"/>
        <path fill="#763D16" stroke="#763D16" stroke-linecap="round" stroke-linejoin="round" stroke-width=".5" d="M6.081 7.889l.864 4.131-.549.405.813.618-.62.486.813.74-.508.364L8.062 16l5.311-1.55 3.758-3.169-9.77-7.23z"/>
        <path fill="#F6851B" stroke="#F6851B" stroke-linecap="round" stroke-linejoin="round" stroke-width=".5" d="M29.99 16l-5.313-1.55 1.615 2.42-2.407 4.66 3.169-.041h4.723zM13.373 14.45L8.062 16l-1.767 5.489h4.712l3.159.04-2.397-4.658zM20.584 17.124l.336-5.843 1.543-4.162h-6.855l1.523 4.162.356 5.843.122 1.843.01 4.537h2.813l.02-4.537z"/>
        <circle cx="34" cy="4" r="4" fill="#14CC70"/>
    </g>
</svg>
