<svg xmlns="http://www.w3.org/2000/svg" width="32" height="32" viewBox="0 0 32 32">
    <g fill="none" fill-rule="evenodd">
        <path d="M0 0h32v32H0z" opacity=".5"/>
        <path fill="#6B8299" fill-rule="nonzero" d="M20.564 24H9a3 3 0 0 1-3-3v-7a3 3 0 0 1 3-3h1.866l2.818-3.79A3 3 0 0 1 16.092 6h.641a3.068 3.068 0 0 1 3.061 3.28l-.118 1.712h2.341a4 4 0 0 1 3.842 5.115l-1.453 5.008A4 4 0 0 1 20.564 24zm-3.03-11.008l.265-3.85A1.068 1.068 0 0 0 16.733 8h-.641a1 1 0 0 0-.803.403l-3.015 4.054V22h8.29a2 2 0 0 0 1.92-1.443l1.454-5.008a2 2 0 0 0-1.92-2.557h-4.485zM9 13a1 1 0 0 0-1 1v7a1 1 0 0 0 1 1h1.134v-9H9z"/>
    </g>
</svg>
