<svg xmlns="http://www.w3.org/2000/svg" width="32" height="32" viewBox="0 0 32 32">
    <g fill="none" fill-rule="evenodd">
        <path d="M0 0h32v32H0z"/>
        <path fill="#0095B3" fill-rule="nonzero" d="M17.581 25.6l-6.966 5.863a2.286 2.286 0 0 1-3.758-1.749V25.6H4.8A4.8 4.8 0 0 1 0 20.8v-16A4.8 4.8 0 0 1 4.8 0h22.4A4.8 4.8 0 0 1 32 4.8v16a4.8 4.8 0 0 1-4.8 4.8h-9.619zM9.6 14.4a1.6 1.6 0 1 0 0-3.2 1.6 1.6 0 0 0 0 3.2zm6.4 0a1.6 1.6 0 1 0 0-3.2 1.6 1.6 0 0 0 0 3.2zm6.4 0a1.6 1.6 0 1 0 0-3.2 1.6 1.6 0 0 0 0 3.2z"/>
    </g>
</svg>
