<svg xmlns="http://www.w3.org/2000/svg" width="38" height="32" viewBox="0 0 38 32">
    <g fill="none" fill-rule="evenodd">
        <path d="M3 0h32v32H3z" opacity=".5"/>
        <g transform="translate(3)">
            <circle cx="16" cy="16" r="16" fill="#FF4343"/>
            <path fill="#FFF" d="M15.805 8a.404.404 0 0 0-.36.235l-4.34 7.292a.404.404 0 0 0-.105.282.404.404 0 0 0 .294.394l4.262 2.604c.147.121.36.122.508.003l4.291-2.626a.404.404 0 0 0 .19-.152l.002-.002a.403.403 0 0 0 .03-.055l.003-.006a.404.404 0 0 0 .034-.143v-.009-.024l-.001-.027v-.005a.404.404 0 0 0-.092-.218l-4.344-7.309A.404.404 0 0 0 15.805 8zm-4.107 9.607a.404.404 0 0 0-.37.52l.001.003a.405.405 0 0 0 .024.06s0 .002.002.003c.013.028.03.054.05.078l4.053 5.696a.404.404 0 0 0 .706.002l4.061-5.715a.415.415 0 0 0 .019-.027c.23-.372-.212-.794-.572-.546l-3.86 2.373-3.86-2.37a.404.404 0 0 0-.254-.077z"/>
        </g>
    </g>
</svg>
