<svg xmlns="http://www.w3.org/2000/svg" width="32" height="32" viewBox="0 0 32 32">
    <g fill="none" fill-rule="evenodd">
        <path d="M0 0h32v32H0z" opacity=".5"/>
        <path fill="#6B8299" d="M18 24h3v1h-3z"/>
        <path fill="#6B8299" fill-rule="nonzero" d="M23.693 15.488c2.889.78 5.277 2.478 5.277 5.012V22a3 3 0 0 1-3 3h-7v-.16c-.304.104-.63.16-.97.16H6a3 3 0 0 1-3-3v-1.5c0-2.542 2.404-4.244 5.305-5.02a5.23 5.23 0 0 1-1.555-3.73c0-2.904 2.35-5.25 5.255-5.25 1.605 0 3.037.716 3.997 1.846A5.245 5.245 0 0 1 20.005 6.5a5.24 5.24 0 0 1 5.245 5.25 5.237 5.237 0 0 1-1.557 3.738zM20.005 15a3.24 3.24 0 0 0 3.245-3.25 3.24 3.24 0 0 0-3.245-3.25 3.248 3.248 0 0 0-3.255 3.25A3.248 3.248 0 0 0 20.005 15zm-8 0a3.24 3.24 0 0 0 3.245-3.25 3.24 3.24 0 0 0-3.245-3.25 3.248 3.248 0 0 0-3.255 3.25A3.248 3.248 0 0 0 12.005 15zM12 17c-2.33 0-7 1.17-7 3.5V22a1 1 0 0 0 1 1h12a1 1 0 0 0 1-1v-1.5c0-2.33-4.67-3.5-7-3.5zm7.97 0c-.29 0-.62.02-.97.05 1.16.84 1.97 1.97 1.97 3.45V23h5a1 1 0 0 0 1-1v-1.5c0-2.33-4.67-3.5-7-3.5z"/>
    </g>
</svg>
