<svg xmlns="http://www.w3.org/2000/svg" width="32" height="32" viewBox="0 0 32 32">
    <g fill="none" fill-rule="evenodd">
        <path d="M0 0h32v32H0z" opacity=".5"/>
        <path fill="#FFF" fill-rule="nonzero" d="M9.167 6.003l1.88-1.88C11.714 3.453 12.802 3 13.744 3h4.507c.947 0 2.025.449 2.699 1.122L22.828 6H25c2.763 0 5 2.233 5 5v13c0 2.76-2.235 5-4.992 5H6.988A4.987 4.987 0 0 1 2 23.998l.015-13a5.002 5.002 0 0 1 5.01-4.996l2.142.001zM6.988 27h18.02A2.998 2.998 0 0 0 28 24V11c0-1.664-1.343-3-3-3h-3l-2.464-2.464c-.3-.3-.87-.536-1.284-.536h-4.507c-.408 0-.988.24-1.284.537L9.995 8.004l-2.97-.002A3.002 3.002 0 0 0 4.014 11L4 24a2.987 2.987 0 0 0 2.988 3zm9.008-4a6 6 0 1 1 0-12 6 6 0 0 1 0 12zm0-2a4 4 0 1 0 0-8 4 4 0 0 0 0 8z"/>
    </g>
</svg>
