<svg xmlns="http://www.w3.org/2000/svg" width="42" height="38" viewBox="0 0 42 38">
    <g fill="none" fill-rule="evenodd">
        <path fill="#242B33" d="M20.055 23.524v1.485a5.35 5.35 0 0 1-.422 2.11 5.835 5.835 0 0 1-1.164 1.771 5.613 5.613 0 0 1-1.738 1.232 5.088 5.088 0 0 1-2.144.456c-.652 0-1.316-.09-1.99-.27a4.71 4.71 0 0 1-1.823-.945c-.54-.45-.985-1.03-1.333-1.739-.35-.708-.524-1.614-.524-2.716v-13.23c0-.788.135-1.52.405-2.194.27-.675.653-1.26 1.148-1.755a5.334 5.334 0 0 1 1.772-1.165c.686-.28 1.445-.421 2.278-.421 1.62 0 2.936.528 3.949 1.586.495.517.883 1.13 1.164 1.84.281.708.422 1.478.422 2.311v1.35h-3.442v-1.148c0-.675-.192-1.26-.574-1.755-.383-.495-.9-.742-1.553-.742-.855 0-1.423.264-1.704.793-.281.529-.422 1.198-.422 2.008v12.285c0 .698.152 1.283.456 1.755.303.473.849.709 1.636.709a2.5 2.5 0 0 0 .726-.118c.259-.079.5-.208.726-.388a2.06 2.06 0 0 0 .506-.743c.135-.315.203-.708.203-1.181v-1.181h3.442zm2.599-11.509c0-.968.168-1.822.506-2.565a5.42 5.42 0 0 1 1.35-1.856 5.707 5.707 0 0 1 1.84-1.08 6.08 6.08 0 0 1 2.075-.372c.698 0 1.39.124 2.076.372.686.247 1.31.607 1.873 1.08.54.495.978 1.113 1.316 1.856.338.743.506 1.597.506 2.565v1.215h-3.442v-1.215c0-.833-.23-1.446-.692-1.84a2.44 2.44 0 0 0-1.637-.59 2.44 2.44 0 0 0-1.637.59c-.461.394-.692 1.007-.692 1.84v12.69c0 .833.23 1.446.692 1.84a2.44 2.44 0 0 0 1.637.59 2.44 2.44 0 0 0 1.637-.59c.461-.394.692-1.007.692-1.84v-4.522H28.02v-3.038h6.176v7.56c0 1.013-.168 1.879-.506 2.599-.338.72-.776 1.316-1.316 1.789a5.787 5.787 0 0 1-1.873 1.113 6.08 6.08 0 0 1-2.076.372 6.08 6.08 0 0 1-2.076-.372 5.415 5.415 0 0 1-1.839-1.113 5.153 5.153 0 0 1-1.35-1.79c-.338-.72-.506-1.585-.506-2.598v-12.69z"/>
        <path fill="#0095B3" fill-rule="nonzero" d="M3.5 3.5V14H0V0h8v3.5zM38.5 34.5V24H42v14h-8v-3.5z"/>
    </g>
</svg>
